<?xml version="1.0" standalone="no"?>
<!DOCTYPE svg PUBLIC "-//W3C//DTD SVG 20010904//EN"
 "http://www.w3.org/TR/2001/REC-SVG-20010904/DTD/svg10.dtd">
<svg version="1.0" xmlns="http://www.w3.org/2000/svg"
 width="3125.000000pt" height="3125.000000pt" viewBox="0 0 3125.000000 3125.000000"
 preserveAspectRatio="xMidYMid meet">
<metadata>
Created by potrace 1.14, written by Peter Selinger 2001-2017
</metadata>
<g transform="translate(0.000000,3125.000000) scale(0.100000,-0.100000)"
fill="#000000" stroke="none">
<path d="M0 15625 l0 -15625 15625 0 15625 0 0 15625 0 15625 -15625 0 -15625
0 0 -15625z m16240 14675 c843 -40 1651 -142 2420 -306 2763 -591 5257 -1934
7259 -3909 1856 -1831 3177 -4090 3861 -6605 203 -744 361 -1590 436 -2336 17
-162 17 -174 1 -198 -19 -29 -16 -28 -179 -49 -276 -37 -522 -160 -723 -362
-596 -598 -466 -1588 265 -2015 145 -85 310 -138 505 -163 91 -12 112 -18 127
-37 22 -28 22 -28 -2 -257 -312 -2937 -1527 -5747 -3454 -7990 -482 -561
-1033 -1112 -1590 -1590 -1908 -1637 -4222 -2761 -6691 -3252 -673 -134 -1320
-215 -2090 -263 -315 -20 -1298 -16 -1625 5 -1650 110 -3120 438 -4590 1025
-3722 1485 -6684 4443 -8175 8162 -499 1244 -820 2521 -970 3860 -30 269 -30
272 -7 300 16 19 36 25 126 36 318 39 586 170 793 387 176 185 295 418 338
662 21 117 21 333 0 450 -101 568 -578 1003 -1152 1052 -62 5 -82 11 -100 29
-29 29 -29 29 2 304 273 2441 1131 4735 2523 6750 902 1305 2021 2463 3305
3419 2350 1751 5142 2747 8102 2890 249 12 1036 12 1285 1z"/>
<path d="M14975 30150 c-1894 -89 -3713 -530 -5440 -1321 -227 -104 -726 -356
-955 -484 -1736 -965 -3234 -2248 -4448 -3813 -1558 -2008 -2569 -4419 -2912
-6947 -22 -159 -60 -485 -60 -510 0 -9 14 -16 37 -20 331 -52 604 -188 827
-410 211 -210 350 -480 403 -780 21 -122 21 -342 -2 -470 -53 -304 -184 -556
-404 -775 -170 -169 -337 -273 -554 -345 -105 -35 -236 -65 -283 -65 l-26 0 7
-72 c15 -162 67 -555 101 -767 329 -2082 1101 -4057 2267 -5806 543 -813 1093
-1482 1807 -2196 463 -463 757 -728 1210 -1090 1741 -1392 3792 -2368 5970
-2843 1147 -250 2352 -363 3483 -328 408 13 688 30 1017 62 2382 233 4645
1039 6635 2361 1259 836 2365 1848 3307 3027 1707 2136 2773 4697 3088 7424
29 247 35 222 -61 237 -513 78 -961 458 -1127 956 -58 174 -67 239 -66 470 1
201 2 215 31 325 76 288 196 493 403 694 204 196 444 322 709 372 47 8 97 18
110 20 23 5 23 7 17 77 -55 584 -187 1337 -351 2002 -418 1695 -1179 3374
-2179 4803 -519 741 -1003 1319 -1646 1963 -312 312 -515 502 -815 760 -1653
1418 -3598 2443 -5710 3009 -938 252 -1861 400 -2920 471 -206 13 -1235 20
-1470 9z m1325 -590 c2967 -152 5763 -1217 8065 -3071 703 -565 1394 -1246
1968 -1936 1598 -1922 2647 -4225 3048 -6692 39 -240 39 -248 5 -278 -34 -29
-58 -29 -92 0 -25 22 -29 37 -54 198 -308 1942 -1024 3794 -2098 5424 -699
1062 -1521 2004 -2477 2836 -1921 1672 -4291 2786 -6808 3199 -782 128 -1434
181 -2242 181 -419 0 -698 -10 -1045 -36 -2581 -198 -5035 -1107 -7123 -2639
-573 -420 -1077 -854 -1597 -1375 -2038 -2043 -3372 -4645 -3845 -7499 -41
-248 -46 -269 -70 -289 -32 -28 -55 -29 -89 -2 -33 26 -33 42 -1 246 140 893
386 1826 713 2698 1436 3831 4490 6845 8337 8228 1413 508 2874 780 4400 821
191 5 792 -4 1005 -14z m-509 -1111 c377 -38 719 -190 1004 -447 55 -49 1016
-1007 2136 -2128 1582 -1584 2043 -2051 2067 -2094 94 -170 87 -381 -19 -539
-142 -213 -414 -286 -648 -175 -75 36 -98 58 -1676 1635 l-1600 1599 -2843
-2843 -2842 -2842 527 -527 528 -528 910 908 c517 516 942 932 985 964 313
234 673 381 1050 427 125 16 411 13 542 -4 381 -53 744 -210 1053 -455 44 -35
481 -463 970 -952 l890 -888 945 946 c520 520 999 996 1065 1056 254 233 527
376 854 445 115 25 146 27 346 28 191 0 235 -3 333 -23 237 -48 452 -136 647
-267 132 -87 290 -231 605 -551 129 -132 1182 -1188 2340 -2349 1762 -1765
2117 -2126 2173 -2205 479 -679 423 -1568 -136 -2190 -47 -52 -1005 -1013
-2129 -2136 -1930 -1927 -2047 -2042 -2111 -2073 -240 -115 -513 -45 -656 170
-61 91 -85 175 -84 289 1 102 19 172 69 259 17 29 602 622 1623 1644 l1596
1598 -2844 2840 -2844 2840 -529 -528 -528 -528 888 -890 c489 -489 917 -926
952 -970 246 -309 402 -673 455 -1055 18 -132 21 -413 5 -540 -37 -296 -142
-599 -290 -846 -130 -213 -163 -250 -1106 -1194 l-904 -905 1449 -1450 c1574
-1575 1500 -1497 1535 -1645 31 -129 13 -265 -49 -376 -28 -50 -412 -438
-2232 -2255 -3060 -3054 -3469 -3461 -3543 -3520 -520 -417 -1225 -504 -1828
-223 -116 54 -191 99 -312 187 -136 99 -4282 4245 -4328 4327 -114 206 -81
452 83 616 156 156 382 194 584 98 75 -36 99 -59 1679 -1638 l1604 -1601 2839
2844 2840 2845 -528 528 -528 529 -870 -873 c-478 -481 -913 -909 -965 -953
-422 -351 -977 -529 -1518 -487 -444 35 -848 194 -1197 472 -44 35 -479 462
-968 949 l-887 885 -1023 -1020 c-562 -561 -1051 -1043 -1087 -1071 -227 -176
-473 -291 -749 -350 -115 -25 -146 -27 -346 -28 -191 0 -235 3 -333 23 -342
69 -621 214 -887 460 -72 66 -274 265 -449 443 -175 178 -1229 1235 -2341
2349 -2211 2215 -2089 2087 -2220 2342 -218 425 -253 910 -98 1358 33 95 101
243 149 323 116 192 108 184 2283 2358 1941 1941 2111 2108 2171 2137 65 32
178 62 235 62 57 0 170 -30 234 -61 90 -44 179 -136 225 -231 70 -147 70 -298
-1 -448 -34 -74 -62 -102 -1637 -1678 l-1601 -1603 2844 -2841 2844 -2840 526
526 526 526 -886 887 c-487 489 -914 924 -949 968 -430 541 -579 1223 -410
1884 76 298 227 592 425 831 44 52 472 486 953 964 l873 869 -1029 1031
c-1044 1046 -1099 1105 -1206 1283 -96 160 -172 356 -213 552 -25 115 -27 146
-28 346 0 191 3 235 23 333 48 237 137 452 267 647 90 136 242 301 596 649
151 148 1206 1199 2344 2336 2265 2261 2129 2132 2387 2265 298 154 631 218
959 184z m-13851 -14769 c24 -24 23 -21 60 -250 173 -1089 492 -2189 930
-3215 1178 -2759 3222 -5057 5825 -6550 1914 -1098 4036 -1713 6260 -1815 281
-13 917 -13 1195 0 1960 90 3801 564 5545 1430 1559 774 2942 1824 4111 3120
1762 1955 2935 4395 3359 6985 19 121 38 233 41 248 15 75 105 92 140 26 14
-27 12 -49 -26 -277 -393 -2380 -1368 -4573 -2869 -6457 -580 -728 -1293
-1452 -2016 -2048 -2226 -1836 -4931 -2926 -7815 -3151 -662 -52 -1446 -52
-2120 -1 -3910 299 -7499 2218 -9921 5305 -939 1197 -1691 2574 -2193 4015
-256 738 -455 1515 -586 2299 -48 289 -49 307 -14 335 34 26 68 27 94 1z"/>
<path d="M15450 27409 c-93 -24 -181 -66 -257 -124 -51 -38 -3623 -3608 -4499
-4495 -360 -365 -373 -383 -426 -550 -19 -63 -23 -95 -22 -205 1 -111 4 -141
26 -207 44 -134 89 -201 234 -348 l132 -134 2845 2839 2846 2840 -112 113
c-126 128 -205 189 -301 232 -135 62 -321 77 -466 39z"/>
<path d="M21915 21000 c-164 -30 -266 -90 -434 -255 l-133 -131 2840 -2845
2840 -2844 112 110 c157 155 214 237 262 381 20 59 23 88 23 209 -1 124 -4
149 -27 218 -60 179 85 26 -2231 2342 -2716 2714 -2693 2691 -2782 2737 -109
56 -195 79 -315 83 -58 2 -127 0 -155 -5z"/>
<path d="M15448 20835 c-175 -28 -374 -116 -515 -231 -67 -54 -3666 -3649
-4139 -4134 -180 -185 -236 -261 -298 -406 -147 -339 -113 -735 89 -1046 38
-58 485 -511 2179 -2207 1358 -1360 2160 -2155 2210 -2193 185 -139 408 -211
651 -211 186 0 322 32 490 114 55 27 132 72 170 101 86 65 4233 4203 4320
4311 71 89 152 238 189 348 84 249 70 541 -38 789 -85 197 31 75 -2265 2373
-1401 1403 -2144 2140 -2200 2182 -241 182 -541 257 -843 210z m317 -2045
c222 -26 428 -108 616 -246 80 -59 2013 -1985 2118 -2110 290 -347 373 -787
231 -1216 -36 -108 -76 -188 -148 -298 -47 -72 -210 -240 -1056 -1089 -551
-552 -1030 -1031 -1066 -1064 -36 -33 -99 -82 -140 -109 -462 -303 -1066 -273
-1495 75 -66 54 -1900 1882 -2023 2017 -52 58 -120 142 -149 187 -283 433
-270 1003 33 1423 72 100 2077 2106 2188 2189 207 155 468 244 736 249 36 1
105 -3 155 -8z"/>
<path d="M15524 17745 c-38 -19 -265 -241 -1025 -1002 -537 -538 -984 -993
-993 -1011 -24 -46 -30 -119 -16 -172 11 -41 92 -125 1008 -1043 548 -549
1011 -1006 1027 -1015 43 -23 159 -22 205 2 19 10 475 458 1013 995 762 761
983 986 1002 1025 31 62 33 133 4 196 -29 65 -1951 1989 -2023 2025 -67 33
-135 33 -202 0z"/>
<path d="M4094 16198 c-67 -68 -135 -145 -153 -171 -153 -226 -161 -529 -21
-770 37 -63 296 -326 2112 -2142 2613 -2613 2741 -2739 2833 -2787 125 -65
202 -83 350 -82 111 1 141 4 207 26 134 44 201 89 347 233 l133 131 -2837
2842 c-1561 1563 -2840 2842 -2844 2842 -4 0 -61 -55 -127 -122z"/>
<path d="M17769 7062 l-2844 -2840 110 -112 c171 -174 275 -239 439 -275 109
-24 263 -17 369 18 178 58 -22 -134 2845 2731 l2622 2621 -348 348 -349 348
-2844 -2839z"/>
</g>
</svg>
