<?xml version="1.0" standalone="no"?>
<!DOCTYPE svg PUBLIC "-//W3C//DTD SVG 20010904//EN"
 "http://www.w3.org/TR/2001/REC-SVG-20010904/DTD/svg10.dtd">
<svg version="1.0" xmlns="http://www.w3.org/2000/svg"
 width="1624.000000pt" height="1624.000000pt" viewBox="0 0 1624.000000 1624.000000"
 preserveAspectRatio="xMidYMid meet">
<metadata>
Created by potrace 1.14, written by Peter Selinger 2001-2017
</metadata>
<g transform="translate(0.000000,1624.000000) scale(0.100000,-0.100000)"
fill="#000000" stroke="none">
<path d="M0 8120 l0 -8120 8120 0 8120 0 0 8120 0 8120 -8120 0 -8120 0 0
-8120z m8730 7015 c1351 -121 2585 -594 3655 -1398 424 -319 849 -727 1196
-1147 650 -787 1128 -1727 1388 -2730 83 -320 177 -862 184 -1054 l2 -80 -45
-8 c-120 -21 -157 -33 -228 -68 -373 -188 -456 -682 -164 -978 100 -102 213
-158 361 -181 36 -6 69 -15 75 -21 19 -19 -46 -500 -109 -801 -228 -1091 -701
-2100 -1392 -2967 -1559 -1958 -4046 -2944 -6523 -2586 -1032 149 -2020 525
-2885 1098 -692 459 -1264 999 -1760 1661 -665 886 -1120 1946 -1304 3037 -37
219 -75 532 -68 552 3 8 23 18 44 21 179 27 283 75 387 178 42 41 89 100 109
138 99 178 101 409 5 592 -47 91 -173 213 -268 259 -68 33 -196 68 -250 68
-30 0 -33 18 -20 137 94 864 350 1716 744 2478 544 1053 1336 1947 2311 2607
1058 717 2268 1128 3560 1208 204 12 789 4 995 -15z"/>
<path d="M7745 15080 c-1709 -106 -3273 -796 -4489 -1980 -1144 -1114 -1869
-2593 -2059 -4198 l-14 -112 26 -6 c257 -52 424 -175 527 -388 73 -151 85
-350 30 -511 -78 -228 -267 -400 -496 -452 l-80 -18 0 -35 c0 -19 9 -100 20
-180 110 -835 370 -1649 761 -2380 541 -1014 1305 -1864 2252 -2505 467 -316
1009 -591 1559 -791 1013 -368 2139 -491 3230 -353 1753 220 3359 1101 4493
2464 782 940 1309 2083 1515 3285 32 185 69 484 62 491 -4 3 -34 11 -67 18
-204 43 -378 178 -471 366 -58 117 -77 210 -71 340 8 172 67 312 184 436 104
110 218 174 361 204 35 8 65 15 67 17 4 4 -30 276 -50 403 -189 1190 -692
2330 -1444 3270 -1197 1496 -2943 2430 -4866 2600 -212 19 -778 27 -980 15z
m660 -280 c993 -45 1897 -281 2765 -720 924 -468 1743 -1162 2362 -2000 620
-841 1048 -1855 1218 -2888 17 -105 19 -136 10 -147 -16 -19 -34 -19 -49 -1
-6 8 -21 67 -31 132 -128 765 -382 1492 -758 2164 -1130 2022 -3244 3312
-5556 3389 -1624 54 -3185 -474 -4441 -1504 -1231 -1009 -2064 -2447 -2330
-4025 -25 -145 -33 -169 -61 -170 -31 0 -35 27 -19 126 238 1484 970 2852
2071 3869 1162 1073 2667 1702 4245 1774 257 12 331 12 574 1z m-105 -1246
c36 -8 107 -35 159 -61 115 -57 100 -43 1180 -1118 529 -527 769 -772 782
-800 35 -77 19 -177 -39 -239 -60 -63 -167 -84 -247 -47 -27 12 -257 234 -722
695 l-681 676 -1144 -1147 c-629 -632 -1172 -1177 -1206 -1213 l-61 -66 222
-222 222 -222 385 386 c212 212 413 406 447 430 282 204 668 223 983 47 78
-43 119 -81 495 -455 l410 -407 445 443 c493 492 526 519 694 575 220 72 449
43 646 -84 48 -30 308 -285 970 -951 1213 -1217 1206 -1210 1258 -1311 59
-114 83 -213 84 -343 0 -133 -19 -218 -79 -340 -45 -92 -54 -103 -292 -345
-787 -802 -1589 -1599 -1626 -1616 -79 -37 -187 -16 -247 47 -58 62 -74 162
-39 239 12 27 234 257 697 723 l678 684 -125 121 c-68 67 -614 610 -1212 1206
l-1088 1085 -224 -224 -225 -224 408 -411 c374 -376 412 -417 455 -495 176
-316 158 -700 -47 -983 -24 -34 -218 -235 -430 -447 l-386 -385 620 -620 c429
-429 624 -631 635 -657 19 -47 19 -138 0 -184 -19 -46 -67 -95 -1385 -1403
-1087 -1079 -1117 -1108 -1197 -1149 -114 -59 -213 -83 -343 -84 -134 0 -218
19 -340 79 l-95 47 -515 507 c-879 866 -1338 1330 -1355 1371 -31 76 -13 172
43 232 60 63 167 84 247 47 27 -12 257 -234 722 -695 l681 -676 1144 1147
c629 632 1172 1177 1206 1213 l61 66 -219 219 -220 219 -387 -385 c-457 -454
-494 -483 -688 -548 -217 -72 -439 -63 -654 27 -141 60 -198 107 -609 516
l-392 390 -448 -445 c-274 -273 -470 -460 -507 -484 -73 -48 -208 -100 -296
-114 -180 -30 -370 11 -529 114 -48 30 -309 286 -975 956 -1208 1212 -1200
1204 -1253 1306 -59 114 -83 213 -84 343 0 134 19 219 79 340 l47 95 497 505
c856 869 1340 1348 1381 1365 76 31 172 13 232 -43 63 -60 84 -167 47 -247
-12 -27 -234 -257 -695 -722 l-676 -681 1147 -1144 c632 -629 1177 -1172 1213
-1206 l66 -61 219 219 219 219 -390 393 c-277 279 -404 414 -438 466 -212 322
-203 728 23 1047 19 28 208 224 420 438 l385 387 -441 443 c-489 490 -516 523
-572 691 -72 220 -43 449 84 646 30 48 285 308 951 970 1213 1209 1210 1206
1309 1257 169 87 335 108 525 67z m-6728 -6424 c4 -19 24 -123 43 -230 347
-1911 1541 -3594 3235 -4559 1229 -700 2628 -988 4035 -830 1863 209 3570
1216 4658 2751 564 796 945 1702 1117 2653 16 94 34 188 38 210 6 34 11 40 35
43 18 2 29 -2 33 -13 14 -35 -82 -525 -157 -800 -424 -1559 -1387 -2908 -2714
-3804 -1008 -680 -2129 -1062 -3344 -1142 -237 -15 -827 -6 -1041 15 -717 74
-1374 241 -2010 513 -210 89 -605 289 -785 397 -1699 1019 -2845 2685 -3185
4629 -33 190 -32 212 14 205 15 -2 23 -13 28 -38z"/>
<path d="M8027 13125 c-21 -8 -60 -30 -85 -49 -26 -19 -502 -491 -1058 -1048
-1125 -1126 -1049 -1041 -1049 -1183 1 -95 29 -154 108 -233 l62 -62 1210
1211 1210 1210 -68 64 c-46 43 -86 71 -123 85 -64 23 -150 25 -207 5z"/>
<path d="M10775 10397 c-66 -22 -97 -43 -157 -104 l-58 -58 1211 -1210 1210
-1210 64 68 c81 86 108 152 103 247 -7 126 43 71 -1081 1197 -1126 1128 -1064
1072 -1192 1079 -33 2 -78 -2 -100 -9z"/>
<path d="M8007 10325 c-134 -37 -99 -4 -1090 -999 -863 -866 -930 -936 -963
-1002 -66 -131 -69 -267 -8 -406 26 -59 84 -120 963 -1001 875 -877 941 -940
1006 -973 139 -69 282 -69 419 0 66 33 136 100 1002 963 999 996 963 956 999
1094 30 110 12 243 -47 349 -23 42 -249 274 -952 976 -702 703 -934 929 -976
952 -105 58 -245 77 -353 47z m288 -887 c32 -11 80 -31 105 -45 64 -37 951
-922 995 -993 56 -93 78 -171 77 -285 0 -121 -23 -203 -81 -291 -23 -34 -229
-250 -488 -511 -446 -450 -448 -451 -533 -492 -167 -79 -323 -80 -489 0 -86
41 -88 44 -547 503 -455 454 -462 462 -503 546 -80 163 -80 322 0 490 41 85
42 87 492 533 255 253 477 465 510 487 130 87 307 109 462 58z"/>
<path d="M8054 9001 c-21 -15 -219 -212 -439 -436 l-400 -408 0 -43 0 -44 430
-430 c444 -444 456 -454 511 -433 29 11 852 820 870 855 18 35 18 72 0 106
-18 33 -822 835 -853 851 -37 19 -78 12 -119 -18z"/>
<path d="M3201 8344 c-77 -84 -104 -152 -99 -244 7 -126 -43 -71 1081 -1197
1140 -1141 1068 -1077 1202 -1078 100 0 155 24 238 104 l68 65 -1208 1208
c-664 664 -1211 1208 -1215 1208 -3 0 -33 -30 -67 -66z"/>
<path d="M9035 4469 l-1210 -1210 68 -64 c134 -126 280 -140 416 -41 26 19
538 529 1138 1134 l1092 1099 -147 146 -147 147 -1210 -1211z"/>
</g>
</svg>
